P2
# CREATOR: GIMP PNM Filter Version 1.1
120 120
255
72
67
69
70
71
77
71
64
70
72
77
65
58
60
66
67
74
69
64
62
70
66
65
65
55
60
67
63
69
72
56
55
67
74
76
79
78
65
65
49
55
66
70
67
70
64
66
69
63
73
70
73
77
66
66
60
62
59
65
69
75
70
68
68
63
62
71
74
73
79
73
79
76
66
64
71
73
64
58
51
57
61
64
69
78
77
69
70
65
73
75
70
66
68
66
58
63
61
56
67
65
66
68
61
68
75
73
71
71
66
60
60
59
61
58
65
71
65
57
53
71
63
64
61
69
69
76
66
70
78
72
58
56
66
65
73
72
75
64
64
75
78
65
57
48
49
60
67
65
70
62
65
80
81
78
80
78
68
69
59
51
69
69
65
70
79
80
76
63
68
71
70
75
77
64
65
62
61
68
77
74
67
65
62
63
70
69
71
69
70
77
77
78
64
66
77
80
71
69
67
58
61
80
76
76
71
78
76
68
76
68
65
62
67
57
62
58
61
61
68
68
68
76
67
64
69
73
76
81
65
53
57
57
56
57
68
70
78
70
63
61
57
61
66
61
66
65
58
61
67
71
67
60
74
78
77
70
78
77
76
73
72
60
54
55
56
58
62
62
67
75
71
68
66
69
72
72
66
74
71
57
68
67
68
75
76
81
75
70
71
70
77
67
65
61
58
49
58
67
73
74
64
68
73
63
59
70
76
70
65
78
83
79
71
64
72
74
68
68
68
69
75
79
79
72
69
70
70
67
69
65
71
73
72
61
59
57
59
57
64
64
66
63
60
65
67
74
70
74
61
51
59
64
70
63
64
70
65
63
51
60
69
53
54
56
67
66
62
76
79
84
69
58
72
81
78
75
74
70
73
77
74
78
67
59
65
58
60
65
61
69
74
70
66
65
63
65
69
71
74
73
73
75
77
68
64
69
71
71
69
75
86
68
61
68
63
56
68
68
70
64
58
58
74
70
64
66
72
74
71
74
66
71
71
72
82
70
68
70
67
68
71
68
68
69
67
57
59
70
72
69
75
85
80
72
66
60
56
60
57
57
60
57
66
78
80
77
70
61
54
52
58
65
63
62
71
77
69
66
59
71
77
73
67
59
66
74
75
70
85
83
70
63
71
82
81
78
75
75
73
74
67
80
70
61
62
56
61
74
69
65
68
74
76
69
72
68
69
66
69
70
68
74
70
55
47
47
58
64
70
70
78
66
64
68
67
59
62
65
70
65
62
66
72
71
64
69
71
70
71
69
64
67
67
63
69
73
73
68
75
79
77
69
67
79
74
63
54
63
71
69
67
77
73
79
78
61
54
57
65
61
60
61
66
74
83
75
69
59
54
51
55
58
62
59
64
65
70
69
70
74
71
66
66
57
58
64
66
67
82
84
75
63
63
80
86
80
78
64
63
63
60
80
82
74
67
60
63
69
68
64
66
73
74
72
60
67
62
63
72
71
66
66
61
51
41
42
56
62
63
60
73
77
77
69
65
65
72
78
81
75
69
66
64
67
67
75
76
76
62
58
66
66
68
66
65
70
76
70
72
78
77
71
67
72
71
63
63
65
72
71
70
73
74
76
76
67
64
64
66
60
58
64
66
71
82
82
71
63
59
58
58
61
60
65
59
61
58
55
67
70
62
68
54
50
59
58
57
68
78
76
66
58
65
76
79
80
70
64
57
55
61
70
68
62
56
56
60
66
63
65
72
70
70
71
59
58
57
64
62
62
65
58
61
61
57
55
58
61
69
69
77
80
84
74
70
76
85
84
79
73
72
67
61
73
79
75
79
82
65
58
66
73
75
66
63
61
69
72
71
62
70
52
43
66
74
62
67
72
72
79
70
73
73
79
79
77
68
62
64
63
73
75
78
76
80
80
69
69
70
67
62
53
48
52
62
66
52
48
59
54
61
68
59
54
63
62
66
70
70
59
61
61
65
73
76
68
62
63
65
65
73
65
58
59
47
48
63
63
66
62
77
71
81
78
64
52
57
63
65
65
71
66
72
71
67
59
66
68
79
81
80
80
82
77
74
74
79
76
74
76
65
61
64
68
75
69
71
86
74
59
64
67
60
59
49
57
72
76
69
61
63
51
51
66
72
66
63
75
86
76
68
72
70
73
77
76
69
62
56
52
65
78
87
84
76
68
63
75
74
73
58
54
57
47
56
60
58
63
56
61
71
65
69
71
78
68
74
74
69
57
49
52
54
54
60
59
56
60
73
84
85
81
79
65
53
53
59
63
73
62
72
76
82
80
75
63
60
58
63
69
70
70
71
72
59
61
66
74
81
83
80
81
72
63
57
62
70
64
69
79
68
63
69
70
73
70
71
72
72
73
72
69
59
55
52
55
71
71
66
65
71
66
61
59
66
70
68
76
74
62
59
67
62
66
71
84
78
72
60
53
68
73
85
81
65
60
59
70
74
65
61
61
62
62
63
64
61
70
55
61
64
63
64
82
83
77
79
75
71
60
51
53
48
40
53
59
52
52
66
75
71
79
80
65
63
54
64
68
70
60
64
75
75
81
82
80
69
62
62
66
69
70
67
69
64
68
74
79
78
77
80
75
63
52
48
59
61
62
65
70
68
65
67
69
66
74
75
66
71
84
76
63
63
56
52
55
65
74
72
69
67
70
68
59
67
79
80
77
73
63
59
53
60
62
74
83
76
69
71
69
72
70
80
76
60
53
61
67
63
55
61
70
66
71
67
61
54
64
59
54
50
54
60
68
69
69
76
73
66
67
63
54
51
47
60
54
57
56
63
68
68
76
80
73
73
67
74
67
58
62
68
65
72
75
74
84
79
64
68
67
66
73
72
72
64
70
84
79
79
80
80
76
66
51
50
60
67
61
61
68
67
60
63
61
59
64
68
72
79
79
69
60
66
58
60
59
62
71
72
68
70
74
71
68
73
74
89
91
81
63
53
40
53
60
65
64
55
55
59
58
69
80
73
61
59
57
64
65
60
54
62
68
67
68
73
61
47
61
60
63
60
56
59
70
63
51
62
71
59
66
60
51
56
61
59
60
59
64
61
64
65
80
88
82
73
63
65
62
52
61
76
78
75
69
65
77
78
71
70
67
69
64
70
72
67
73
80
80
75
77
69
68
69
66
62
67
62
64
63
60
64
65
67
66
58
53
58
68
68
65
59
62
68
68
71
71
66
69
66
66
67
64
70
67
71
71
82
87
77
69
62
47
53
65
66
63
61
60
52
54
59
73
61
59
55
52
64
75
69
57
57
61
68
69
65
62
59
70
57
56
58
62
66
66
62
50
67
76
74
68
66
60
65
60
63
62
63
65
63
57
69
80
79
73
72
68
69
68
57
59
82
82
71
60
60
72
75
68
69
76
72
59
56
59
61
75
75
81
74
74
66
64
67
67
64
60
66
68
65
64
60
63
67
74
69
60
63
59
59
63
65
68
68
71
69
71
71
71
71
65
65
67
75
77
75
62
67
76
71
68
63
62
63
76
73
71
73
65
61
60
56
63
55
51
51
50
55
61
67
63
61
56
76
79
69
66
63
70
64
55
59
54
58
61
59
51
52
74
81
79
78
81
76
67
68
67
61
72
59
52
57
75
74
72
74
67
66
68
65
69
83
81
70
70
64
70
73
74
68
71
65
57
55
56
57
58
65
68
70
70
63
64
67
66
60
63
66
70
67
71
60
51
55
64
64
61
60
51
61
61
68
72
64
68
64
66
64
70
63
58
63
77
78
76
70
52
49
63
74
70
67
73
71
77
72
71
70
68
66
60
63
57
55
61
54
52
45
54
68
68
59
55
63
66
68
70
67
82
66
56
62
55
59
58
60
62
59
67
74
78
76
69
60
69
73
66
65
60
51
53
53
56
67
75
74
67
68
70
67
70
76
80
77
72
61
67
66
66
68
58
58
54
57
59
59
60
54
56
67
77
82
68
64
68
63
63
66
73
64
67
69
54
49
50
52
57
62
53
56
66
71
67
56
56
60
58
51
62
62
62
69
81
78
62
54
49
49
65
74
79
76
69
69
72
67
59
63
75
66
64
62
66
59
68
66
63
59
55
77
71
67
56
55
61
71
75
69
77
64
59
70
62
60
56
61
59
63
72
79
75
65
62
55
60
63
65
61
53
49
66
58
49
62
73
68
69
64
71
62
68
73
73
73
68
61
63
67
64
60
61
57
57
57
60
61
62
50
55
74
89
81
75
76
78
69
61
63
69
65
64
64
61
62
64
68
69
65
58
58
67
76
67
58
52
57
67
65
57
61
65
67
68
63
53
57
60
63
69
70
73
70
63
57
57
55
56
67
76
73
76
69
70
64
67
66
69
69
61
68
73
70
60
56
64
75
77
73
77
64
65
73
68
67
63
68
70
71
74
85
83
70
64
54
53
58
64
64
57
62
77
63
47
62
63
60
58
55
66
75
78
70
69
73
63
63
65
66
63
63
66
66
63
61
59
61
71
58
60
70
83
78
82
73
74
67
56
51
57
66
70
69
68
70
67
59
59
64
61
67
68
75
70
62
59
61
70
75
67
66
70
64
67
64
47
53
61
62
61
65
65
59
46
46
57
55
59
69
60
65
80
73
73
76
74
63
60
64
64
66
67
66
64
62
62
62
65
70
85
73
58
62
62
67
68
72
80
80
73
78
80
78
66
60
47
53
68
68
60
74
80
73
65
65
68
70
68
62
55
74
78
75
75
72
64
59
68
66
65
73
73
74
73
71
60
59
69
66
57
62
66
74
69
65
67
64
56
56
63
69
63
57
59
66
63
54
61
68
68
71
69
72
70
54
48
59
70
69
75
77
78
63
70
63
43
43
57
58
56
68
68
63
49
44
56
65
64
61
65
64
78
76
77
75
72
63
57
60
77
80
66
54
64
68
60
58
65
71
78
65
53
59
61
58
65
70
72
78
79
79
77
72
62
61
56
63
72
67
75
84
85
75
75
62
57
70
68
68
60
62
72
74
77
71
65
71
73
66
62
70
76
75
80
69
62
62
72
68
55
61
72
73
64
68
71
70
64
73
72
68
66
62
57
64
68
62
66
67
68
72
67
61
63
63
66
67
68
70
73
71
61
62
62
58
55
54
65
69
72
74
75
67
62
55
67
82
76
69
67
72
79
77
89
77
72
69
69
62
74
80
70
56
58
59
55
52
54
59
72
69
66
61
65
63
63
65
61
72
77
75
75
74
60
64
70
73
69
63
75
76
74
69
66
62
68
69
69
67
69
72
75
79
80
75
70
73
75
70
65
76
88
83
89
86
70
69
77
72
58
65
82
77
54
52
65
65
54
64
73
73
71
59
56
53
61
66
65
57
56
59
60
57
62
67
63
64
75
82
75
72
64
59
67
64
52
50
59
73
69
81
76
77
74
68
76
79
81
75
69
65
69
75
89
82
78
73
74
67
63
67
74
59
53
55
56
54
56
57
71
76
65
67
71
75
69
64
63
60
66
71
66
62
53
65
69
68
68
70
67
54
48
62
74
68
70
66
61
68
75
75
69
71
79
71
65
71
74
73
69
66
79
84
82
79
73
68
69
68
58
65
81
69
54
55
63
64
55
68
72
78
62
49
49
49
50
48
47
39
41
47
57
57
65
63
58
67
73
74
71
67
68
67
63
58
44
50
59
73
75
80
82
72
78
78
79
83
85
70
55
55
54
66
74
77
85
87
78
75
78
75
69
66
56
55
49
58
62
69
63
69
72
76
74
73
76
69
65
57
58
69
62
51
60
68
65
62
57
63
57
44
39
59
66
70
74
67
61
63
68
68
65
65
69
69
64
63
65
71
61
52
65
65
60
69
73
69
77
65
53
63
65
55
51
68
62
56
57
71
76
78
67
58
56
52
48
39
39
37
35
36
54
59
54
58
64
68
73
75
68
59
63
66
65
51
40
42
53
75
71
71
70
65
77
74
64
83
83
65
47
53
55
59
64
66
80
67
59
65
72
68
66
72
72
70
53
56
61
63
63
72
84
74
76
69
72
64
62
62
67
68
68
55
55
60
61
60
60
57
56
44
49
65
67
69
68
67
68
61
55
62
64
69
61
66
70
73
69
67
61
48
58
63
62
66
64
60
65
61
54
58
57
52
48
63
59
47
54
67
73
74
67
63
60
56
52
43
45
51
49
49
64
67
46
50
61
59
59
60
69
60
74
74
67
55
40
42
51
60
57
58
58
67
66
59
60
72
78
67
53
58
63
66
70
68
72
63
62
66
71
75
72
73
83
82
72
70
56
52
66
75
68
57
67
71
69
63
61
63
73
67
59
57
57
57
49
58
64
58
52
42
53
72
61
67
68
63
70
60
63
54
54
58
62
69
74
74
69
63
58
57
58
65
74
66
54
56
54
61
64
60
53
58
62
61
62
53
52
73
85
71
56
56
54
57
51
53
46
50
48
54
61
62
52
54
50
57
57
59
63
65
71
74
63
56
54
51
60
51
54
61
62
58
58
54
61
77
73
68
71
67
70
70
71
68
68
63
70
75
80
82
72
68
78
73
75
70
63
59
55
67
69
58
69
81
75
68
64
64
71
64
52
59
58
59
51
56
61
65
60
49
57
63
61
62
67
70
67
57
63
52
47
47
55
60
70
74
72
62
57
59
54
56
63
58
43
47
59
70
67
56
57
68
64
61
57
53
64
64
65
53
52
59
62
51
46
57
55
46
44
39
47
56
58
52
59
64
68
64
69
61
60
62
64
59
58
57
58
53
51
59
62
55
53
54
60
75
69
69
66
74
70
67
71
74
72
65
66
73
78
65
61
63
63
65
73
60
65
63
51
70
77
69
78
77
77
72
74
75
72
63
57
62
57
70
65
61
65
71
73
71
69
66
62
70
71
71
70
60
67
60
54
59
62
60
58
58
63
66
62
58
63
58
56
51
46
49
53
59
59
53
57
69
60
56
60
56
55
45
44
48
60
61
57
44
42
47
43
44
43
38
40
43
42
47
64
73
73
66
63
58
47
52
57
58
58
50
51
62
57
59
64
70
70
62
64
80
70
58
58
68
66
64
59
64
64
62
67
60
65
59
62
63
62
64
66
58
58
66
57
71
77
85
66
70
82
76
76
67
67
66
60
67
66
80
75
69
70
79
72
72
74
69
65
68
70
63
65
74
77
68
68
71
65
70
57
58
66
73
65
61
73
67
53
53
57
60
60
55
53
54
53
55
52
57
67
64
53
49
48
67
73
68
67
49
48
46
47
50
53
42
41
36
47
57
64
71
76
67
60
49
36
43
48
58
60
53
49
63
67
66
63
75
66
65
69
76
73
51
51
62
75
69
59
61
63
68
69
59
55
57
64
63
62
57
55
50
47
55
65
71
80
85
63
70
74
69
72
68
60
59
62
65
69
83
75
70
72
74
67
66
65
65
69
67
62
59
63
67
75
69
77
71
57
67
67
63
72
80
69
67
70
59
53
68
67
69
71
64
62
56
56
59
58
55
61
70
70
64
62
71
70
67
55
56
61
52
48
46
49
41
37
38
59
71
73
76
78
64
57
49
38
40
47
43
53
55
54
62
68
73
70
73
74
53
53
62
68
66
69
65
65
63
60
62
75
70
73
66
58
61
65
65
63
65
60
57
60
62
76
72
76
76
67
66
64
65
65
70
68
58
62
64
73
78
72
60
64
63
57
69
71
68
73
63
63
63
61
69
74
69
71
68
60
64
65
62
63
76
75
77
62
48
49
56
70
70
67
69
71
67
63
57
61
56
70
77
73
67
64
59
61
60
55
68
61
41
37
49
55
51
44
52
71
96
99
90
94
71
57
54
54
51
48
51
52
53
57
51
63
70
75
77
72
54
47
52
61
55
62
55
59
68
70
67
59
68
70
67
69
65
63
59
62
68
62
51
64
65
81
76
85
70
60
53
52
60
71
64
71
59
52
60
69
67
57
56
60
56
52
63
72
66
69
79
73
65
58
61
63
68
70
68
67
71
55
52
60
70
81
74
56
52
44
49
53
66
72
82
78
80
65
57
52
60
62
72
76
69
51
52
64
57
53
63
61
39
38
51
60
68
74
78
90
108
112
99
101
84
65
66
61
62
62
66
59
61
62
70
66
61
60
67
72
65
60
54
59
56
63
55
63
70
74
64
57
60
59
61
73
62
54
49
65
69
59
55
62
67
79
82
65
58
54
53
58
68
70
68
69
62
65
63
67
54
48
53
58
55
48
61
67
68
68
81
75
73
57
60
56
70
75
70
65
71
59
54
69
71
79
75
57
56
52
53
45
56
70
82
82
69
56
67
56
53
55
55
66
66
55
55
59
49
48
45
44
45
47
56
63
77
95
96
100
123
123
102
94
93
77
69
66
65
59
56
59
63
62
72
65
55
57
65
71
76
75
71
71
55
59
59
60
65
64
65
65
63
69
64
63
69
58
50
51
62
68
68
68
63
70
73
57
45
56
63
63
69
80
79
69
65
57
60
66
56
60
61
63
53
54
62
68
74
71
74
74
73
64
62
59
69
67
65
69
80
71
58
60
70
79
74
63
52
53
48
47
59
61
73
83
69
63
61
49
50
55
50
54
61
69
64
54
44
41
45
43
48
56
64
70
81
105
120
129
145
135
116
108
102
90
87
77
73
72
60
54
60
62
57
59
54
57
59
67
77
76
81
77
56
58
62
70
60
55
69
71
70
63
67
63
70
66
57
52
67
78
73
74
62
67
68
66
61
65
69
59
68
75
74
64
61
53
55
58
60
61
67
68
64
58
67
62
67
72
81
76
76
64
58
55
71
64
62
62
67
75
73
60
69
78
74
64
55
53
54
53
49
52
68
73
65
70
72
58
53
50
51
66
60
57
52
52
51
54
52
42
55
65
68
80
94
118
136
152
157
148
140
123
119
109
104
93
93
86
75
57
60
56
50
54
52
49
50
65
71
71
68
71
63
66
69
73
61
58
63
68
64
64
77
74
69
64
61
61
69
78
75
64
59
61
68
73
59
62
72
65
61
70
70
65
63
54
56
54
49
54
60
62
70
70
66
63
61
68
74
72
72
70
68
64
71
69
62
62
57
66
66
64
68
73
66
69
62
52
59
53
46
50
60
69
65
78
78
54
43
40
56
58
66
53
49
57
57
57
52
50
61
72
80
91
106
124
139
153
163
164
154
143
135
129
126
110
104
102
83
62
57
49
41
45
45
47
51
59
66
63
56
66
55
62
74
76
76
77
68
60
58
71
75
74
67
68
67
67
68
68
65
62
64
55
66
67
62
56
60
66
64
70
69
66
66
73
66
59
59
61
61
59
71
72
65
67
69
61
56
60
62
67
70
66
65
63
48
49
53
63
69
65
67
75
68
62
64
62
58
53
55
61
59
66
72
80
78
50
42
50
57
61
65
68
57
55
54
45
51
57
65
71
77
90
111
123
137
152
159
170
171
161
159
154
147
129
113
100
77
63
51
40
34
38
33
41
48
66
72
60
52
58
53
52
70
72
73
73
72
60
55
67
78
73
69
66
61
62
69
63
63
67
72
58
61
62
64
53
61
71
69
62
64
67
71
74
67
62
61
62
61
58
61
65
68
67
71
66
59
60
67
60
67
66
62
53
47
48
54
68
70
64
61
71
68
71
72
65
61
59
54
66
67
69
78
77
72
56
45
52
58
53
61
64
58
55
51
53
52
60
67
71
83
96
106
115
128
147
161
170
174
176
183
182
160
131
107
90
73
70
56
36
35
38
27
32
39
61
71
59
48
52
54
49
62
69
77
61
67
64
67
73
66
57
62
64
64
65
67
60
56
64
65
61
63
63
55
51
46
57
64
62
62
68
65
66
66
61
58
67
65
62
57
54
57
54
62
67
70
73
76
70
68
71
73
67
55
60
59
69
72
63
58
69
74
86
82
65
62
59
58
66
59
61
62
70
64
59
58
56
54
59
58
55
53
53
42
42
52
56
64
77
75
91
98
107
113
139
164
181
181
183
189
183
161
142
114
92
77
69
57
34
36
43
35
45
50
57
54
58
52
56
62
54
54
65
71
62
64
70
78
68
57
63
66
65
57
66
69
57
54
55
57
56
66
59
48
49
48
59
61
62
66
64
61
63
70
68
66
77
70
69
65
58
60
61
52
54
63
64
63
64
71
69
70
63
67
72
69
72
67
60
54
53
71
85
79
73
64
56
52
60
61
63
62
66
60
62
60
57
53
60
51
40
39
52
43
41
63
62
60
65
64
70
77
91
112
130
161
180
183
192
192
180
168
141
115
90
67
49
43
36
38
45
48
55
68
60
53
61
65
66
61
57
53
58
61
64
65
73
74
65
59
62
63
58
67
69
71
59
51
51
54
53
64
66
57
59
66
72
65
56
61
57
60
65
69
75
78
76
77
67
63
58
63
60
54
57
61
58
63
65
73
66
59
58
74
71
62
61
59
58
49
54
64
73
72
67
57
54
58
65
62
61
63
71
64
63
62
55
57
58
55
37
35
43
47
49
61
64
58
53
66
68
72
89
106
120
151
178
188
189
184
171
158
130
98
68
47
31
26
24
37
54
53
60
66
62
58
59
69
66
62
62
61
51
59
61
61
60
56
58
66
64
67
75
76
65
73
67
61
65
62
63
72
66
65
68
71
75
65
58
55
54
55
69
62
70
74
69
70
69
63
57
54
54
58
61
60
61
63
68
64
68
69
69
68
74
56
47
49
51
51
51
55
69
76
71
52
54
63
62
54
56
65
72
66
66
64
64
55
56
59
51
39
45
50
46
48
40
38
41
52
61
62
76
94
117
154
181
196
186
172
151
136
114
81
50
37
29
32
46
48
52
51
59
56
61
60
49
50
51
52
50
54
54
51
49
62
54
53
59
60
63
70
82
73
63
69
64
69
71
69
71
71
65
72
72
80
71
61
63
65
58
67
74
68
65
69
72
69
57
55
53
46
43
49
59
61
61
62
63
64
68
62
62
52
60
51
43
43
49
50
51
45
60
73
65
59
56
56
49
40
42
62
74
71
68
64
62
56
49
51
50
41
43
48
43
35
29
33
38
46
50
52
59
90
124
155
182
210
201
179
150
134
101
72
55
42
35
39
47
47
47
47
53
50
53
58
47
37
47
46
43
50
56
46
49
59
59
62
65
62
66
68
79
73
58
61
64
64
64
59
62
64
68
75
74
82
67
55
62
69
59
62
68
69
59
62
78
72
68
69
51
57
54
46
56
68
62
70
68
73
74
72
66
63
63
49
32
40
55
50
50
49
63
69
70
61
56
56
47
37
37
54
67
71
67
58
68
63
50
51
53
49
47
42
41
37
35
40
38
42
44
45
63
93
127
149
174
209
209
186
157
126
88
66
62
53
35
32
34
42
50
44
50
49
44
55
56
50
60
54
45
51
62
49
51
58
62
62
66
64
61
67
77
69
69
63
65
63
58
56
56
67
65
66
70
77
62
49
52
56
49
53
63
70
63
64
68
67
67
67
57
54
50
47
57
64
60
57
73
79
85
89
79
70
64
47
38
53
66
52
49
52
54
62
65
56
63
59
52
44
39
57
66
71
64
54
61
63
57
59
57
46
39
37
43
47
36
41
43
35
34
45
72
94
116
149
180
202
196
167
136
102
76
55
52
60
47
40
48
47
49
41
50
56
48
58
63
67
61
59
58
64
74
63
66
66
74
67
74
72
63
66
56
60
62
67
62
65
62
59
63
59
67
66
70
74
63
54
50
43
40
51
71
83
78
72
77
63
52
60
57
51
51
57
68
73
59
52
69
80
80
75
75
73
66
51
49
63
63
54
48
53
55
65
68
56
68
56
47
46
42
52
60
70
69
58
58
50
52
60
58
50
47
42
48
47
52
51
48
40
33
34
55
71
97
142
185
198
186
153
115
88
61
46
46
46
50
50
53
46
44
39
40
50
45
58
66
70
68
60
62
69
72
61
71
71
71
65
64
70
63
65
70
62
58
63
69
71
65
68
63
63
70
78
70
76
69
66
67
57
53
59
72
87
81
73
69
60
62
66
57
54
60
59
66
78
61
58
69
76
67
71
70
72
75
65
63
65
68
65
52
52
61
55
63
67
68
54
43
50
49
56
71
78
75
57
36
47
58
59
58
57
51
50
49
49
44
45
43
32
33
34
48
66
93
143
188
199
176
140
101
79
57
48
41
48
49
49
43
52
41
38
42
44
43
50
62
64
67
59
71
72
72
72
73
63
67
66
62
58
59
61
61
62
64
63
69
72
64
58
62
59
71
72
62
69
78
70
69
60
56
59
66
75
78
70
62
62
69
69
60
62
67
58
60
70
63
60
64
69
66
69
67
72
70
67
66
64
72
61
56
59
62
59
56
54
62
56
40
41
37
53
76
78
72
59
40
44
51
48
48
45
39
44
51
50
49
44
32
28
35
36
47
74
104
137
183
180
149
137
105
79
59
53
41
45
51
62
62
64
46
43
46
58
54
57
70
63
68
70
79
81
71
75
67
57
57
66
67
61
56
57
60
61
68
66
67
68
59
61
66
61
68
69
55
72
77
77
68
59
58
59
60
65
78
72
70
67
65
57
54
65
66
66
65
75
76
72
69
67
62
57
52
66
66
64
56
48
59
53
48
52
68
65
57
55
61
52
50
47
45
57
68
64
68
60
48
45
46
43
54
41
35
32
45
49
38
29
25
23
28
30
52
83
110
141
174
166
144
126
95
60
46
47
49
46
46
60
70
64
53
44
52
67
70
66
70
67
77
76
81
75
62
65
63
56
51
61
68
56
56
55
59
55
61
68
74
79
72
67
63
66
63
62
63
67
71
74
74
70
65
71
63
62
68
73
69
70
63
50
52
58
61
66
65
76
75
72
74
74
55
48
53
57
56
55
49
38
59
51
36
45
57
58
44
58
65
61
61
57
57
61
60
52
50
54
56
49
41
52
59
54
40
34
38
39
28
20
20
20
30
45
73
104
126
152
178
173
147
130
102
70
54
52
50
43
45
63
56
51
55
59
55
55
63
63
62
70
74
69
63
62
61
53
51
61
58
56
55
56
52
54
63
68
71
71
71
77
71
62
59
65
67
58
69
66
72
69
72
72
69
70
70
65
61
62
66
74
63
52
54
58
56
66
66
72
66
58
65
68
67
62
58
62
56
53
49
41
49
53
35
36
48
55
54
63
67
76
74
61
52
67
64
60
53
56
59
52
49
48
51
54
47
48
40
22
19
24
32
42
51
67
93
126
149
163
178
169
161
138
109
81
67
63
51
45
42
48
52
51
53
65
59
50
47
54
50
60
56
52
51
46
47
44
58
75
69
62
66
66
56
57
71
82
81
69
59
73
68
57
61
64
74
57
66
67
72
63
64
68
68
70
66
66
66
59
61
68
58
53
50
62
61
65
66
71
76
64
56
62
68
62
50
60
67
56
47
35
41
43
35
29
41
54
54
61
78
85
75
55
46
71
66
66
64
61
63
49
50
41
42
46
50
47
39
22
13
19
37
52
64
85
119
142
158
175
177
176
166
147
118
101
85
74
66
64
60
45
43
49
42
48
50
43
49
48
45
46
51
53
60
49
42
47
69
80
75
69
73
68
63
60
73
76
75
72
69
77
75
67
67
77
75
58
57
61
72
64
64
65
72
65
62
72
73
68
66
73
63
55
60
55
56
55
60
74
79
65
59
64
74
65
53
55
60
54
48
45
40
41
39
33
32
51
53
54
53
65
64
53
55
66
67
60
56
62
66
59
58
49
46
44
51
46
35
15
9
15
27
45
68
99
138
154
160
180
186
172
164
158
143
137
125
105
101
92
63
49
54
50
39
34
34
38
40
40
40
43
45
55
71
50
50
55
67
70
65
72
65
71
69
59
56
68
73
69
75
75
65
75
64
76
69
60
52
62
76
62
65
73
69
58
59
64
64
77
71
86
81
66
54
46
49
52
59
63
67
61
59
73
84
80
67
64
67
48
42
49
50
41
30
26
33
40
52
43
47
57
57
59
73
72
75
64
57
55
51
62
60
60
59
51
46
42
32
13
6
21
33
51
82
114
139
158
162
170
172
173
168
171
168
169
158
152
141
116
78
67
65
55
47
39
39
43
49
39
39
45
50
57
60
52
48
52
56
54
50
60
61
65
65
55
56
67
72
72
69
63
68
79
68
75
57
62
55
59
72
59
60
79
68
60
54
53
58
70
71
80
81
68
50
41
39
45
50
45
51
57
67
76
88
88
76
66
60
49
45
49
47
32
39
38
28
33
37
42
46
50
57
59
70
79
77
69
50
41
40
45
56
52
49
51
45
47
24
13
7
17
40
66
98
125
140
158
159
152
159
164
164
165
177
184
175
170
158
136
108
86
78
70
72
61
56
64
55
50
44
50
55
60
58
50
57
52
49
57
61
63
65
59
58
53
60
65
65
65
65
60
64
79
71
72
54
58
56
54
66
70
67
67
68
66
58
55
60
72
69
72
66
66
56
50
56
49
49
49
47
52
51
65
82
84
69
67
65
58
68
55
54
41
46
42
32
34
39
40
42
48
50
51
54
63
62
54
53
45
44
55
53
39
32
32
39
42
23
13
6
23
54
84
112
138
160
166
157
152
150
154
152
157
175
189
189
188
178
160
136
116
110
104
95
85
82
73
72
62
39
43
57
59
54
49
60
66
64
53
60
55
57
46
46
51
58
66
64
62
66
64
69
80
70
67
63
66
57
61
67
73
72
66
64
68
65
57
62
75
68
59
59
67
62
63
65
63
55
51
58
55
54
56
66
72
69
66
69
76
75
63
61
40
41
35
31
35
37
35
38
39
40
32
38
48
44
44
49
43
43
53
51
31
32
38
35
26
7
0
12
36
74
116
136
156
175
170
156
145
146
145
148
154
169
185
198
212
203
187
170
153
141
137
118
106
100
82
77
71
55
52
62
55
50
58
68
76
67
53
57
64
61
54
41
48
59
66
76
68
54
60
65
69
66
67
60
65
66
71
72
70
73
71
68
69
71
66
69
71
59
50
64
68
64
66
74
64
56
53
53
53
57
61
66
63
55
62
60
67
67
62
56
47
39
29
25
34
34
40
43
34
26
22
36
34
35
37
38
35
32
41
37
26
33
29
35
23
7
11
35
77
115
156
178
185
189
181
173
172
172
161
151
148
148
167
191
217
218
212
190
178
168
164
147
131
115
92
82
79
76
68
58
51
50
59
69
71
63
59
61
71
72
64
51
54
62
67
76
79
61
52
47
57
65
61
57
64
62
74
69
56
65
65
70
74
74
66
69
62
56
55
69
70
57
58
69
63
59
57
55
49
54
63
65
56
49
54
49
51
59
54
61
49
38
37
32
29
27
36
34
30
25
20
29
35
23
19
27
29
25
25
30
23
38
47
40
33
28
33
61
114
141
181
208
213
205
199
198
205
189
167
158
156
146
159
185
205
224
215
214
198
197
190
171
149
122
103
89
79
83
72
59
45
45
54
64
70
65
60
63
60
62
60
71
71
71
77
79
73
72
71
52
56
67
67
62
59
62
68
64
55
53
63
63
62
67
56
59
51
54
67
71
67
59
52
76
65
55
63
61
50
50
52
60
66
55
46
51
54
55
61
62
48
38
39
37
41
33
30
29
27
28
28
28
30
28
26
27
17
16
29
38
40
38
49
45
42
56
65
84
123
161
200
216
216
204
211
215
210
200
179
167
152
151
168
187
200
225
235
242
225
208
206
182
151
125
99
84
75
73
72
66
60
54
55
64
69
73
68
68
68
71
70
78
74
64
67
79
78
77
75
61
61
59
60
57
57
64
63
61
49
53
70
66
67
59
55
51
55
57
66
62
63
65
62
66
66
62
59
61
52
48
54
65
72
73
59
59
59
63
70
63
55
39
31
33
38
37
37
34
35
42
42
37
47
52
49
40
41
30
35
41
46
61
66
63
64
83
105
136
148
180
208
214
216
210
217
217
199
193
178
165
142
141
163
186
204
220
240
253
235
219
209
190
166
143
127
93
67
75
74
59
60
57
57
63
65
68
69
75
71
63
65
70
60
63
64
73
69
72
72
72
69
67
60
68
64
68
62
57
51
54
66
69
71
60
62
70
66
59
64
55
59
67
60
53
62
67
59
56
55
55
59
62
69
76
70
67
63
62
56
49
55
43
38
35
50
61
75
71
65
61
77
73
61
62
60
49
68
60
52
66
69
79
88
87
99
117
144
159
172
198
205
203
199
199
200
192
181
187
169
153
131
133
152
169
192
216
227
252
246
229
222
197
170
147
121
93
72
71
75
61
60
49
43
49
52
58
63
74
69
57
65
63
61
72
72
73
73
63
62
62
70
75
70
66
69
78
68
57
55
56
51
59
71
64
68
74
60
57
63
57
46
56
59
51
57
54
54
43
45
52
50
57
62
69
70
60
54
53
46
52
54
51
54
55
74
87
109
114
114
104
115
107
94
89
89
92
102
94
96
100
112
109
114
112
124
137
163
164
173
188
184
177
168
163
163
165
159
160
146
115
108
115
133
155
193
216
229
235
235
229
227
205
171
140
114
99
79
84
75
65
62
46
39
38
41
50
60
64
59
54
65
58
63
67
73
77
70
64
53
61
75
74
67
71
73
77
71
64
60
52
50
55
62
62
66
65
57
57
58
56
57
57
58
56
53
48
42
38
41
37
50
58
64
60
68
51
38
40
50
62
63
64
67
84
105
118
141
146
157
152
148
149
139
130
129
139
135
134
145
150
142
136
130
127
140
157
166
172
171
175
164
141
123
113
120
125
115
113
104
84
76
96
114
141
174
201
204
215
220
221
217
197
169
130
127
109
84
86
66
56
61
58
55
42
45
55
60
65
59
57
57
56
58
61
67
74
70
62
61
67
76
68
71
74
72
71
70
61
50
49
60
64
67
72
78
59
61
56
51
52
59
61
65
58
49
43
42
50
40
37
53
64
60
53
55
50
43
54
66
78
90
101
109
125
137
151
177
177
178
186
180
172
172
166
169
173
162
169
180
172
159
152
150
152
149
163
169
170
168
159
142
108
87
78
80
71
70
73
67
52
48
64
83
117
133
160
163
174
193
197
200
178
152
123
118
102
92
77
56
54
61
70
72
56
59
67
76
73
67
69
66
68
68
66
77
82
73
75
68
68
65
62
73
68
65
76
86
67
53
52
55
59
63
67
77
73
63
65
57
58
52
66
58
54
58
48
47
49
36
37
49
51
52
56
57
59
54
71
80
102
123
149
154
164
170
185
196
193
192
195
185
170
179
167
183
189
179
184
196
185
182
174
163
159
160
162
163
155
148
127
113
87
69
52
43
35
28
37
33
36
36
43
61
73
91
114
127
141
151
159
164
148
126
113
105
87
80
68
50
58
67
79
74
76
70
71
75
73
74
82
75
74
64
66
72
77
78
85
74
69
76
74
73
70
72
80
82
69
65
59
55
55
62
68
72
71
67
60
64
55
55
70
66
60
59
58
53
46
43
51
52
56
53
71
77
75
86
104
117
141
159
181
185
194
205
213
200
187
177
177
174
160
161
166
181
184
195
196
199
193
183
172
161
144
144
153
153
139
120
100
88
68
46
31
26
10
8
20
26
27
31
41
64
72
71
82
93
104
112
113
126
128
110
101
95
85
79
66
50
53
63
68
68
73
79
60
67
76
76
88
77
72
72
69
72
80
76
80
73
67
74
65
66
64
55
61
71
72
70
66
64
57
58
66
73
70
63
62
53
57
59
65
62
62
66
56
56
54
57
58
66
70
75
96
107
104
125
147
157
174
182
207
210
205
216
211
190
169
159
152
150
138
146
154
164
170
175
175
181
173
162
160
155
126
124
132
136
116
103
79
67
51
37
31
18
12
9
15
20
25
28
37
56
54
60
64
67
79
86
86
88
102
87
86
88
84
71
64
56
60
56
57
65
72
78
65
61
58
71
71
75
76
78
78
78
73
70
70
74
66
65
67
61
67
50
53
60
67
67
65
63
60
60
64
68
66
59
61
68
71
67
61
71
64
67
63
70
66
62
64
72
79
107
120
135
147
163
176
197
210
207
217
225
220
213
188
160
146
129
114
103
104
115
131
142
154
149
155
158
156
148
140
133
122
116
109
100
85
76
60
49
37
23
23
16
5
16
18
23
37
45
44
43
46
41
47
57
66
75
69
56
66
65
74
77
84
80
74
62
52
53
56
68
73
68
68
61
60
63
64
74
71
80
76
80
72
69
75
66
69
76
66
67
67
52
59
62
61
62
64
58
63
62
60
61
67
56
59
76
74
67
60
71
63
48
55
70
72
72
64
72
101
137
155
175
192
208
212
213
207
202
208
208
214
208
178
156
127
96
84
71
68
85
99
113
120
122
130
137
143
135
120
121
115
111
92
79
60
55
49
39
29
22
28
20
13
21
25
35
43
53
52
45
45
49
42
46
50
58
50
46
46
53
64
72
74
79
67
59
58
53
55
67
69
66
69
71
68
65
72
75
66
67
81
83
72
64
68
72
66
77
77
71
72
67
64
63
67
64
54
58
64
59
63
55
67
64
59
72
68
56
47
58
50
41
50
61
71
83
92
109
147
180
200
222
230
235
227
210
193
176
165
174
183
179
166
142
109
65
53
53
56
67
77
82
95
94
91
104
103
104
101
98
98
85
78
72
47
43
36
34
35
45
46
38
25
34
34
36
41
41
42
35
44
52
52
51
47
46
52
51
51
47
57
58
54
69
65
64
59
59
66
70
68
65
71
70
67
70
70
72
76
81
79
66
63
66
67
70
63
71
72
75
61
66
64
66
60
60
55
56
56
53
55
54
65
69
56
59
52
48
43
55
46
40
52
58
80
98
119
153
174
206
226
250
255
240
217
196
176
145
129
128
127
133
125
102
69
38
36
42
42
57
60
60
63
55
58
67
74
79
74
88
78
66
61
61
48
40
26
37
45
59
65
58
35
38
38
34
33
30
29
29
52
53
54
55
55
53
58
56
46
44
44
48
45
61
61
68
58
53
63
71
64
65
65
60
70
72
68
75
83
82
79
68
61
69
62
61
64
69
69
63
53
61
63
70
63
63
53
51
53
65
70
64
71
71
60
65
56
44
37
49
49
51
56
61
82
110
135
176
205
227
250
254
250
233
200
179
159
131
104
89
83
88
88
63
46
38
44
47
42
47
46
44
53
41
30
43
52
59
56
58
59
53
57
54
36
35
33
35
45
57
57
49
39
34
32
26
25
28
34
37
48
54
53
63
66
63
63
55
43
46
48
54
53
59
58
64
53
50
64
65
68
70
70
66
65
66
61
61
72
73
76
73
67
64
55
59
69
61
68
60
61
64
60
61
65
64
61
64
54
59
67
72
70
64
62
66
59
54
44
50
51
55
57
61
92
121
140
188
223
241
250
246
230
208
177
156
135
117
86
66
52
54
54
38
33
41
51
53
34
36
38
37
41
30
16
24
31
43
43
52
46
44
42
52
42
31
30
41
36
47
43
46
49
36
24
27
24
35
38
50
48
55
60
65
68
63
62
65
58
63
65
59
60
60
62
57
50
58
59
66
65
73
78
76
70
59
50
53
69
74
78
77
66
61
54
65
73
68
64
59
67
66
60
68
72
76
66
71
61
58
68
73
69
58
55
61
55
54
50
56
54
54
46
61
94
112
137
184
220
229
226
221
206
185
153
131
112
98
74
41
36
40
34
29
26
39
45
45
35
33
38
41
34
34
23
24
31
33
40
45
35
37
32
38
37
26
38
35
33
39
42
45
46
38
25
32
35
42
44
51
50
52
61
63
60
60
61
72
64
68
64
59
56
63
64
58
52
49
39
46
54
70
90
86
73
69
51
52
65
75
81
65
58
55
53
61
69
60
63
63
64
69
68
67
76
84
71
67
70
72
68
68
66
62
53
64
56
49
59
63
61
61
54
66
89
111
130
167
192
201
195
185
155
148
135
114
92
71
69
52
28
24
20
21
30
37
44
43
42
38
42
48
36
34
34
35
36
35
36
29
29
28
33
32
28
39
48
46
45
53
54
46
48
42
33
34
43
45
56
65
65
59
56
53
53
53
54
67
60
55
60
60
61
65
67
62
50
45
32
39
46
61
80
85
76
66
56
62
68
69
73
69
61
69
68
68
70
63
60
63
54
62
65
67
75
68
61
64
68
70
67
65
68
66
58
60
62
54
61
62
58
64
57
66
79
101
119
145
153
161
153
138
107
104
107
100
88
65
64
50
32
20
21
28
31
30
41
44
50
39
39
35
25
29
42
58
54
46
39
38
35
37
42
39
34
49
52
42
58
59
51
55
64
63
52
49
45
45
58
58
67
70
66
53
49
48
48
56
51
51
61
60
61
61
62
51
49
48
46
49
60
67
74
70
63
58
55
62
74
78
70
63
70
71
70
70
68
60
56
52
59
61
58
54
59
48
58
59
56
65
58
62
63
51
55
60
53
58
61
58
56
57
57
61
76
89
105
107
111
125
129
119
99
83
84
75
74
65
63
45
41
34
27
32
35
33
41
50
61
52
37
35
35
37
48
50
50
45
43
42
36
45
48
42
33
38
55
46
50
60
64
70
73
70
56
53
52
61
65
61
63
55
55
49
47
38
29
38
40
49
62
63
62
60
70
60
52
45
52
54
75
80
77
65
65
63
61
64
77
71
59
59
73
68
68
72
67
66
65
54
67
69
53
45
52
48
57
56
65
67
59
48
55
52
62
62
54
61
54
51
52
54
58
57
66
75
82
90
95
101
115
110
96
77
65
59
57
59
53
50
46
41
34
28
33
37
44
51
60
47
43
43
41
56
56
47
44
47
46
52
47
49
55
54
37
41
51
39
39
49
53
61
60
60
57
55
65
71
65
59
58
44
50
53
53
45
29
38
36
44
58
59
59
59
71
67
65
56
64
68
78
82
79
72
64
65
67
66
74
67
61
63
73
66
73
67
66
75
70
60
60
58
48
46
55
55
54
57
69
66
61
54
61
59
62
69
67
64
62
51
46
47
61
65
69
78
72
81
87
95
110
102
85
74
56
50
40
39
42
49
39
38
30
21
36
47
48
49
50
52
53
47
54
62
66
59
47
51
50
59
55
51
62
62
57
35
37
38
44
45
47
49
48
54
49
51
53
66
56
58
59
48
51
50
47
41
47
47
49
43
54
65
67
68
72
73
66
60
68
67
76
74
69
69
61
61
65
66
75
79
79
69
63
71
82
68
55
63
72
68
65
71
62
53
56
55
47
58
66
60
72
65
64
65
71
76
76
63
61
58
50
47
57
71
83
76
68
72
86
100
104
95
86
73
56
44
40
38
34
35
31
37
28
25
31
49
55
47
47
54
56
50
47
48
58
58
55
58
61
60
54
53
65
57
48
42
35
45
50
48
41
42
49
58
69
63
51
49
40
48
56
49
55
56
61
61
59
53
49
49
54
67
62
69
69
71
66
61
66
69
72
69
67
59
56
53
70
77
69
78
74
66
61
66
72
60
58
65
65
63
61
69
71
53
46
41
43
49
63
59
61
61
56
61
61
65
62
64
60
59
45
50
61
62
65
69
69
67
79
88
90
92
90
74
59
49
46
41
41
39
31
35
40
44
58
64
64
46
46
57
51
47
50
46
53
56
63
62
62
64
58
65
71
68
50
47
42
47
55
65
61
51
56
61
67
57
54
43
34
45
53
54
43
51
65
68
60
49
57
58
58
61
57
58
61
65
63
71
67
61
64
65
67
60
57
58
69
78
76
76
80
75
72
71
63
65
71
73
66
57
65
64
62
61
51
54
55
54
65
64
56
56
60
64
56
54
52
58
58
54
45
47
57
61
58
58
65
74
79
85
76
80
81
73
52
45
41
35
42
42
38
35
47
57
68
68
61
54
50
46
43
49
53
53
59
71
66
63
70
73
72
74
71
63
58
48
43
54
60
74
69
53
45
47
56
64
58
50
49
43
53
54
50
53
63
64
64
54
61
62
55
47
49
48
46
50
55
66
72
71
75
67
64
62
66
72
78
76
67
75
83
72
75
74
77
79
78
72
63
55
67
55
52
62
66
69
68
60
65
65
63
55
63
65
64
59
54
54
62
51
50
53
60
63
55
55
62
70
75
67
63
59
67
61
50
41
40
43
53
56
48
42
48
60
62
63
59
63
55
49
42
44
42
56
65
63
59
63
59
69
71
65
62
51
53
58
56
61
73
74
62
56
58
54
62
68
63
51
55
60
49
46
43
40
49
65
68
67
70
66
56
43
38
39
44
48
57
60
70
72
71
68
63
54
70
84
79
69
73
80
73
67
62
69
69
72
76
70
66
69
57
51
61
67
77
67
69
64
64
69
58
58
56
63
72
65
57
59
57
58
50
51
55
64
64
59
51
50
68
60
55
52
57
48
47
40
38
45
56
59
49
39
39
55
58
55
53
63
56
52
51
40
37
54
66
54
57
56
58
62
65
56
55
48
44
53
57
59
67
69
60
58
57
59
60
69
66
60
60
51
49
50
34
44
47
60
70
72
70
68
54
49
42
49
53
57
67
64
65
70
68
60
63
55
60
75
74
66
78
76
67
63
55
59
68
69
69
68
78
74
67
62
66
65
75
74
77
66
68
65
64
60
59
75
77
71
63
58
53
52
48
46
60
62
57
60
48
32
47
57
59
51
49
38
45
36
39
49
63
60
49
43
48
67
65
62
60
64
62
42
46
48
54
60
56
52
56
57
69
65
62
54
55
47
43
48
61
57
55
60
51
52
57
60
61
66
66
65
63
57
58
64
49
47
54
65
72
73
75
67
56
54
43
53
65
65
73
76
64
72
67
65
73
56
53
62
74
67
72
78
70
63
60
62
62
59
71
71
68
66
61
61
56
55
67
73
72
64
59
65
77
66
67
78
83
70
63
60
57
52
49
54
61
65
55
55
42
36
45
56
55
51
43
35
40
32
43
55
61
55
45
42
48
57
60
64
62
70
62
48
47
54
60
63
52
47
51
59
64
57
61
67
63
57
51
54
70
67
61
62
52
56
58
64
63
57
61
70
67
61
68
72
69
69
74
74
72
78
77
67
59
61
57
61
71
70
67
71
63
64
65
61
61
53
54
68
74
70
71
72
72
64
64
56
49
50
62
67
66
61
64
62
59
53
60
59
61
65
58
69
73
64
65
70
80
63
54
60
52
55
58
64
65
63
53
50
48
49
56
58
54
50
44
40
46
39
46
64
63
53
41
42
46
44
49
58
47
54
50
49
51
58
64
55
50
56
63
71
67
52
63
68
70
64
60
58
62
73
69
63
58
51
60
69
62
60
70
73
61
65
68
68
70
76
74
70
69
72
70
69
66
72
74
75
73
70
61
65
63
56
53
47
54
50
65
71
74
67
68
66
71
75
65
55
58
56
67
68
67
62
63
65
63
58
57
55
53
56
58
57
63
57
66
74
67
61
60
63
63
62
62
71
69
56
47
47
53
46
49
58
53
41
40
37
40
37
47
60
72
63
45
50
53
46
49
53
49
51
54
58
61
63
60
53
55
59
61
63
61
47
57
62
57
58
60
61
62
68
80
72
60
47
60
66
64
67
72
77
74
72
69
72
60
72
70
59
58
62
65
62
59
66
77
77
77
73
64
61
57
57
48
48
56
63
77
79
76
71
69
67
75
76
69
55
58
70
70
69
62
59
62
59
67
69
63
60
61
59
57
48
55
58
64
70
62
61
61
65
64
61
71
79
73
77
65
43
45
42
45
58
57
51
41
47
52
54
59
67
66
68
53
56
57
60
58
54
52
56
54
56
67
62
50
47
51
63
61
60
66
55
52
57
50
51
57
63
65
69
81
81
64
61
70
72
65
66
72
71
67
73
70
76
74
77
72
72
67
59
61
60
55
65
77
77
74
73
58
60
54
61
56
61
70
68
75
70
79
79
74
71
71
67
64
66
65
71
69
58
56
66
69
62
66
64
68
63
68
66
62
51
54
59
65
64
56
61
67
69
63
67
73
73
67
77
59
49
48
49
51
58
66
65
53
58
64
67
66
66
68
71
65
58
63
62
50
48
53
52
52
57
66
62
57
56
56
58
57
61
69
64
59
61
46
47
52
59
69
73
70
74
73
75
78
77
67
65
63
60
51
59
68
70
73
79
79
76
68
49
51
59
58
68
66
63
70
65
62
61
50
62
67
69
68
71
70
69
74
71
75
62
53
65
74
73
71
82
69
56
62
68
69
72
60
66
75
68
73
68
69
60
56
64
65
61
56
62
65
64
65
67
65
62
57
59
49
51
49
49
58
52
58
70
65
64
61
74
76
67
66
67
61
57
62
58
54
56
60
62
54
63
70
72
63
59
60
62
61
59
62
52
62
63
49
46
53
63
64
71
63
72
75
79
80
81
73
69
64
53
37
49
59
64
67
74
78
78
66
53
47
63
64
73
68
65
69
69
65
57
58
68
73
73
77
73
69
74
74
68
68
63
63
63
75
75
69
78
71
66
59
59
63
73
66
67
72
73
70
71
69
67
60
71
73
64
61
56
59
68
70
76
67
56
64
50
47
54
49
54
56
61
67
64
64
65
67
61
62
59
56
53
51
54
54
60
66
72
66
68
69
65
66
68
59
63
58
69
71
70
64
57
67
71
55
50
58
62
59
73
68
66
75
76
73
84
76
70
68
61
38
32
49
61
64
74
77
74
68
63
54
59
64
68
65
67
75
76
60
57
66
68
71
71
77
73
69
71
76
68
75
77
67
56
70
68
65
67
65
57
52
50
66
76
67
58
64
66
74
75
56
65
70
68
73
76
69
64
66
71
72
75
58
54
67
57
53
61
51
55
55
58
67
57
66
66
62
56
46
51
51
47
44
52
60
68
77
78
65
67
63
58
55
61
58
69
67
76
75
62
65
57
57
63
58
55
63
65
61
68
72
68
72
71
62
72
82
79
79
64
35
40
45
47
52
67
74
69
68
67
56
60
67
64
60
59
67
71
70
73
79
74
78
73
69
66
64
60
67
71
75
79
66
66
64
61
58
65
58
59
57
46
62
73
64
63
64
71
75
67
59
66
77
57
64
74
73
60
65
70
63
68
62
55
65
65
66
67
66
56
60
62
56
55
60
54
60
51
45
46
49
49
51
51
58
61
69
78
72
70
59
55
59
55
57
66
73
82
86
71
69
58
53
52
58
70
73
73
70
67
72
65
69
65
65
71
89
86
80
64
50
45
45
44
52
61
71
67
63
72
63
68
65
73
71
67
67
77
78
76
73
72
77
77
71
65
63
62
78
76
64
59
63
78
75
66
65
59
53
48
50
41
67
73
66
65
63
66
66
66
58
64
67
54
56
64
66
61
65
71
68
64
62
63
61
63
64
58
62
59
62
71
60
58
55
50
62
57
51
51
55
53
50
53
56
59
65
74
74
68
61
49
63
61
45
44
66
79
82
75
72
70
56
50
57
74
79
76
77
75
68
61
58
56
62
69
75
75
76
74
57
50
53
48
50
62
69
69
72
72
69
68
58
58
71
70
73
79
73
70
62
64
64
71
75
66
54
64
72
70
73
71
61
75
73
73
67
71
62
59
55
55
70
74
71
70
59
55
58
62
53
53
60
52
55
54
60
66
72
72
71
68
64
63
61
58
65
58
65
64
76
74
63
56
51
51
59
63
70
66
61
59
62
74
75
83
74
73
62
61
61
63
66
60
54
62
71
75
74
71
71
64
59
60
59
63
70
77
87
77
64
58
55
49
54
55
67
78
75
75
67
57
54
54
51
71
72
71
76
71
71
72
66
73
71
63
67
71
65
71
75
68
68
73
69
68
69
76
72
68
83
77
66
74
75
70
68
72
74
70
68
62
70
66
70
71
65
58
69
58
54
57
62
70
72
75
66
63
69
63
68
64
59
60
64
67
69
65
66
64
72
69
56
58
61
58
58
60
71
71
60
54
67
76
78
81
68
67
59
57
60
68
66
63
61
70
74
78
78
74
59
53
64
65
61
56
69
85
93
82
62
58
55
50
54
62
70
72
76
76
74
64
56
48
59
74
79
73
74
59
68
70
64
66
68
62
66
64
64
76
70
71
71
71
68
63
71
73
76
69
73
75
78
79
80
63
67
72
67
66
69
63
72
61
68
63
56
61
68
65
62
58
69
70
70
70
77
79
60
55
61
64
64
67
68
70
70
70
67
57
58
59
56
64
68
69
69
64
69
60
53
47
64
65
61
60
67
60
60
55
61
62
65
63
63
62
59
77
77
73
69
60
58
60
66
53
69
71
83
72
64
60
59
62
61
70
70
74
75
69
63
64
57
63
64
70
77
75
71
58
54
57
62
59
66
68
77
72
72
77
62
67
66
56
62
61
65
73
72
68
73
79
81
82
79
70
61
68
70
69
72
70
73
66
72
66
55
58
59
62
58
61
72
73
68
72
83
80
69
68
66
57
60
75
73
68
70
64
71
62
64
67
64
67
74
81
70
69
64
61
60
61
63
67
58
57
66
60
55
54
58
61
71
71
61
59
55
60
64
68
71
63
65
60
60
65
62
67
72
68
64
66
64
67
72
74
72
75
68
65
63
66
65
68
62
71
79
82
78
69
55
54
62
64
59
60
61
65
67
76
69
70
68
57
60
57
72
77
59
63
79
87
82
80
73
65
53
61
66
62
64
68
54
64
72
68
64
64
63
61
62
63
58
67
69
66
64
68
63
70
73
68
69
72
66
72
76
77
77
67
61
58
63
74
81
77
74
72
63
70
75
66
66
73
63
64
70
66
64
65
62
71
78
75
64
55
54
53
56
53
59
73
71
70
69
66
62
70
64
70
73
68
70
67
72
71
69
77
72
69
66
72
69
74
68
72
73
77
74
66
56
49
64
69
60
54
55
55
63
66
72
75
72
67
60
55
70
79
66
60
76
88
73
68
66
65
56
51
55
56
46
50
55
64
74
69
66
61
63
61
64
62
57
62
62
63
70
69
77
68
73
74
76
67
59
65
75
80
71
70
55
55
66
80
78
70
68
65
62
65
69
72
68
73
72
69
64
72
73
66
70
73
67
65
63
53
49
54
62
60
55
65
73
75
65
57
54
64
59
59
71
72
67
66
60
72
75
71
71
66
67
66
62
73
76
78
76
77
69
63
64
64
63
67
66
61
55
65
71
69
69
68
69
77
69
59
66
67
63
57
71
73
69
69
62
67
62
57
59
51
51
55
66
61
67
60
58
55
57
64
63
67
66
70
70
73
71
73
77
73
60
71
65
69
62
58
56
63
70
75
64
61
65
73
65
65
62
61
64
70
71
63
62
63
64
65
70
79
72
64
67
64
64
62
64
64
57
65
68
68
65
72
67
64
56
45
48
51
48
59
72
67
58
61
62
66
63
62
63
68
77
62
59
67
75
78
73
75
68
66
72
67
64
68
68
67
68
69
75
74
70
72
73
64
61
56
55
52
63
64
68
67
66
63
61
64
71
65
63
66
51
55
65
66
72
59
61
54
60
66
69
65
64
69
60
72
64
61
67
66
55
60
65
70
71
64
61
63
74
72
63
59
62
74
60
60
62
60
54
57
60
51
62
57
58
60
62
74
75
65
54
54
57
61
62
69
69
76
81
80
81
78
71
70
55
53
51
52
49
59
73
75
65
63
65
59
54
56
55
70
82
68
56
62
75
78
72
62
65
63
68
68
66
66
71
69
73
74
76
65
65
78
80
66
54
45
59
65
67
63
66
68
75
72
70
67
68
67
66
67
61
58
67
71
67
63
74
77
73
72
68
67
71
64
57
74
70
63
61
63
54
57
67
72
70
67
68
67
67
68
51
54
65
66
61
57
66
68
65
61
53
55
60
64
64
60
65
69
65
59
62
63
69
59
57
70
79
79
78
81
74
67
72
73
61
52
62
69
62
69
71
76
76
69
65
62
62
58
52
67
84
70
58
60
69
72
68
61
62
63
68
66
68
65
73
67
69
72
76
62
60
67
70
63
47
48
59
64
62
64
69
73
74
73
73
78
74
71
69
65
62
64
70
70
60
62
69
73
75
73
65
66
70
70
63
71
79
66
63
65
68
67
63
71
64
69
78
71
66
60
49
44
58
64
51
50
57
63
72
72
67
61
56
58
63
69
68
69
63
63
70
65
63
60
65
75
80
71
67
70
73
71
76
67
69
66
65
63
70
72
69
79
79
78
68
58
66
49
57
57
62
64
59
57
58
68
69
69
71
68
65
60
69
67
71
70
68
74
72
73
70
67
71
66
54
58
66
67
64
71
67
65
67
66
73
77
77
73
66
63
67
70
71
72
65
68
78
83
80
74
71
72
69
63
63
73
82
76
67
69
75
74
62
72
74
65
78
73
67
62
58
52
55
66
66
55
54
60
69
67
62
60
52
45
55
70
69
72
75
72
72
69
68
68
74
70
69
62
65
76
70
65
65
75
72
68
65
65
75
71
68
79
73
70
62
59
60
54
55
59
60
66
63
64
66
74
81
81
77
68
71
69
68
59
68
67
69
63
65
74
75
70
66
60
43
58
63
66
60
65
66
67
62
59
60
72
80
75
67
71
78
75
72
72
70
66
74
81
74
72
77
71
67
67
63
75
81
68
61
62
62
60
62
63
58
60
65
75
65
70
63
66
54
63
70
66
66
70
70
65
61
55
48
49
57
69
66
67
65
65
67
65
62
68
74
62
53
61
61
75
75
63
60
75
67
57
58
65
81
73
64
69
65
69
63
62
61
58
68
69
68
65
56
67
77
78
91
90
71
67
76
83
66
75
73
59
60
58
68
69
67
73
68
61
43
50
65
71
71
70
59
58
55
52
60
72
71
70
70
64
68
71
69
70
74
79
76
77
79
81
82
73
67
73
71
74
78
73
67
60
62
67
66
61
52
50
55
65
65
70
65
64
60
66
68
72
72
73
75
74
57
56
60
63
63
66
65
67
66
64
66
63
55
61
59
59
49
55
55
64
62
53
51
58
62
54
61
64
74
72
67
63
70
69
63
69
68
63
61
67
69
64
66
73
75
83
86
78
65
73
81
89
80
78
75
67
59
67
65
64
67
65
65
61
56
64
68
69
80
71
62
54
52
51
63
66
67
66
68
73
64
70
76
66
69
72
74
72
68
74
72
65
56
74
79
71
62
66
68
63
60
69
68
63
49
44
56
55
58
58
61
63
62
71
68
75
77
74
71
69
60
56
61
62
59
62
64
63
66
71
72
62
55
51
57
57
57
58
60
66
58
59
59
61
61
66
71
63
64
65
61
66
67
65
71
72
72
67
65
67
69
75
71
75
75
77
74
73
68
86
88
82
75
76
75
72
63
68
60
63
67
59
58
59
65
68
67
64
79
79
66
62
71
69
71
74
66
70
73
58
67
76
76
69
70
68
74
59
62
76
76
69
57
71
80
69
61
59
63
63
51
56
66
63
53
50
59
69
67
61
65
67
60
67
74
77
76
74
72
67
68
65
65
70
68
79
74
59
60
73
72
66
67
57
64
59
62
66
72
62
50
69
72
65
53
62
71
67
71
68
65
70
60
58
61
68
72
68
60
50
64
77
70
66
73
72
67
73
78
83
86
72
65
67
71
60
57
58
69
68
61
60
63
72
74
68
66
69
80
75
65
67
75
73
65
71
73
79
68
53
57
65
59
70
59
51
57
47
57
77
81
73
68
69
75
67
69
64
66
61
58
57
68
72
69
62
63
73
70
67
75
72
69
71
79
83
72
63
67
77
71
72
75
77
63
63
72
67
62
71
76
88
75
64
53
55
55
66
68
53
48
64
68
59
49
57
59
67
70
65
65
64
49
53
61
63
66
63
58
60
73
72
67
58
66
60
60
67
76
78
80
72
73
68
67
67
66
63
72
77
72
64
67
78
74
65
64
65
72
68
52
60
74
70
59
64
69
78
67
45
48
43
66
60
55
48
47
49
53
69
76
71
66
69
74
70
69
67
71
73
67
65
72
77
70
66
70
69
69
70
74
70
72
77
75
68
65
59
60
66
72
77
75
76
73
60
60
57
53
57
67
79
76
65
57
53
53
65
67
61
59
66
75
63
58
63
58
61
69
72
65
69
57
60
60
59
70
74
67
59
66
66
62
64
65
58
62
63
64
65
66
69
66
66
62
61
66
58
70
81
81
75
74
77
71
60
70
73
59
45
48
61
75
71
69
65
68
73
64
56
56
53
62
62
51
63
57
57
56
52
60
66
64
64
59
69
74
71
74
72
71
80
89
75
70
69
74
74
62
65
76
70
73
65
52
58
62
58
54
59
63
69
73
79
74
63
63
58
51
63
71
73
72
76
72
67
63
61
59
65
68
71
77
71
74
79
71
67
68
66
72
65
58
66
69
71
76
79
75
58
57
60
60
63
62
61
70
72
66
57
67
78
70
68
60
59
56
55
73
88
90
77
68
71
63
60
66
65
55
50
56
74
75
77
75
70
71
72
63
66
60
59
60
59
56
58
63
61
63
56
57
52
59
58
55
67
73
73
83
79
77
75
78
71
59
57
69
75
63
63
67
62
71
62
49
66
66
55
51
50
58
68
71
70
77
79
69
65
68
76
86
72
69
78
88
70
68
66
63
69
67
69
69
69
77
82
78
75
76
68
70
69
56
68
62
75
85
82
73
63
63
63
59
57
52
55
71
70
55
57
58
66
68
63
51
68
65
67
75
81
87
76
68
73
60
57
62
57
59
59
70
74
73
77
68
69
68
66
59
62
64
63
67
58
67
69
70
62
55
52
57
59
62
66
64
67
73
51
64
76
72
68
66
64
58
56
68
80
75
67
56
44
63
64
64
70
67
58
50
42
49
58
58
61
65
64
75
71
63
64
71
72
71
69
75
74
76
69
66
71
64
61
75
72
73
75
72
74
76
73
70
62
61
62
68
71
83
84
74
72
76
60
47
55
63
62
66
60
50
62
68
63
68
70
63
78
70
72
76
84
83
74
73
81
76
67
66
64
68
63
69
67
61
66
58
62
73
72
62
62
56
69
75
73
77
71
68
58
48
54
63
62
63
70
74
76
64
54
64
74
78
77
68
73
76
65
69
76
81
68
61
55
62
63
63
66
60
60
54
56
49
47
58
63
63
59
67
65
63
71
74
73
63
65
76
69
72
62
54
57
56
59
73
70
74
69
62
64
71
65
70
66
60
64
61
61
71
66
78
82
76
64
58
60
65
71
71
68
66
75
75
75
76
72
72
75
72
67
70
74
76
68
63
72
76
75
76
72
73
69
70
73
62
65
64
65
76
71
64
63
67
65
79
71
75
66
67
55
47
63
79
65
70
74
76
77
71
57
63
74
85
83
79
78
72
71
73
76
70
64
68
66
65
61
58
61
55
57
61
59
57
52
71
70
63
56
57
63
68
76
81
76
63
66
75
64
60
55
51
53
61
61
70
70
66
63
63
65
60
56
64
80
74
60
64
63
62
57
74
85
71
73
63
57
69
76
85
75
72
82
78
79
74
73
69
70
75
65
58
63
64
67
60
65
71
79
88
77
77
71
74
74
75
80
67
63
64
70
70
83
83
68
69
58
64
55
60
55
52
65
72
71
75
72
81
81
69
58
57
68
65
64
72
69
72
73
77
74
65
73
67
63
55
60
67
72
69
65
71
64
55
48
53
61
58
51
54
59
67
71
74
62
64
66
74
67
56
53
53
43
56
62
74
73
67
61
63
62
54
50
65
84
80
70
68
66
69
68
70
79
77
71
61
63
70
77
83
80
84
78
77
84
75
61
59
70
66
59
57
56
65
76
60
65
78
77
87
85
82
73
81
73
76
77
67
63
63
57
67
78
78
76
59
48
59
54
56
59
60
60
53
58
63
67
79
79
72
73
64
65
66
64
72
75
71
74
62
63
59
72
71
61
60
64
61
62
64
69
67
58
53
53
56
63
64
60
59
57
69
69
69
56
56
60
67
71
60
55
54
50
49
63
66
63
63
64
64
56
47
56
69
67
73
70
68
77
74
65
70
72
62
66
69
73
69
65
70
74
78
62
67
73
68
56
52
67
64
59
65
66
76
68
69
78
84
81
71
79
73
69
73
66
62
62
66
70
67
60
64
65
69
69
55
51
64
72
63
59
61
64
60
71
71
68
68
65
66
67
64
71
75
74
78
81
69
69
68
71
56
64
69
61
51
55
62
68
65
75
72
57
54
46
54
67
66
60
57
62
68
68
59
63
68
74
76
73
65
62
58
63
65
65
61
61
62
71
65
60
56
56
64
60
67
75
68
68
78
71
69
71
64
59
64
68
59
57
65
61
57
59
61
61
71
68
65
63
58
52
59
64
70
63
56
68
75
76
59
71
66
66
75
68
53
57
66
71
73
73
69
58
66
64
67
66
71
73
69
71
66
60
66
70
69
60
49
53
68
67
68
70
76
73
72
68
67
73
63
63
58
62
68
61
54
55
56
62
73
78
71
60
54
49
51
66
68
63
58
57
60
65
62
72
73
79
78
68
66
65
57
63
63
69
73
66
69
73
73
65
66
76
66
68
69
76
70
64
71
71
73
65
59
56
62
62
59
62
69
70
62
64
62
69
79
74
63
62
58
59
61
64
67
73
69
66
68
65
66
78
65
63
71
67
58
66
65
64
65
66
67
61
57
59
